<svg aria-hidden="true" style="position: absolute; width: 0; height: 0; overflow: hidden;" version="1.1" xmlns="http://www.w3.org/2000/svg" xmlns:xlink="http://www.w3.org/1999/xlink">
<defs>
<symbol id="icon-cog" viewBox="0 0 24 28">
<path d="M16 14c0-2.203-1.797-4-4-4s-4 1.797-4 4 1.797 4 4 4 4-1.797 4-4zM24 12.297v3.469c0 0.234-0.187 0.516-0.438 0.562l-2.891 0.438c-0.172 0.5-0.359 0.969-0.609 1.422 0.531 0.766 1.094 1.453 1.672 2.156 0.094 0.109 0.156 0.25 0.156 0.391s-0.047 0.25-0.141 0.359c-0.375 0.5-2.484 2.797-3.016 2.797-0.141 0-0.281-0.063-0.406-0.141l-2.156-1.687c-0.453 0.234-0.938 0.438-1.422 0.594-0.109 0.953-0.203 1.969-0.453 2.906-0.063 0.25-0.281 0.438-0.562 0.438h-3.469c-0.281 0-0.531-0.203-0.562-0.469l-0.438-2.875c-0.484-0.156-0.953-0.344-1.406-0.578l-2.203 1.672c-0.109 0.094-0.25 0.141-0.391 0.141s-0.281-0.063-0.391-0.172c-0.828-0.75-1.922-1.719-2.578-2.625-0.078-0.109-0.109-0.234-0.109-0.359 0-0.141 0.047-0.25 0.125-0.359 0.531-0.719 1.109-1.406 1.641-2.141-0.266-0.5-0.484-1.016-0.641-1.547l-2.859-0.422c-0.266-0.047-0.453-0.297-0.453-0.562v-3.469c0-0.234 0.187-0.516 0.422-0.562l2.906-0.438c0.156-0.5 0.359-0.969 0.609-1.437-0.531-0.75-1.094-1.453-1.672-2.156-0.094-0.109-0.156-0.234-0.156-0.375s0.063-0.25 0.141-0.359c0.375-0.516 2.484-2.797 3.016-2.797 0.141 0 0.281 0.063 0.406 0.156l2.156 1.672c0.453-0.234 0.938-0.438 1.422-0.594 0.109-0.953 0.203-1.969 0.453-2.906 0.063-0.25 0.281-0.438 0.562-0.438h3.469c0.281 0 0.531 0.203 0.562 0.469l0.438 2.875c0.484 0.156 0.953 0.344 1.406 0.578l2.219-1.672c0.094-0.094 0.234-0.141 0.375-0.141s0.281 0.063 0.391 0.156c0.828 0.766 1.922 1.734 2.578 2.656 0.078 0.094 0.109 0.219 0.109 0.344 0 0.141-0.047 0.25-0.125 0.359-0.531 0.719-1.109 1.406-1.641 2.141 0.266 0.5 0.484 1.016 0.641 1.531l2.859 0.438c0.266 0.047 0.453 0.297 0.453 0.562z"></path>
</symbol>
<symbol id="icon-user-circle" viewBox="0 0 28 28">
<path d="M23.797 20.922c-0.406-2.922-1.594-5.516-4.25-5.875-1.375 1.5-3.359 2.453-5.547 2.453s-4.172-0.953-5.547-2.453c-2.656 0.359-3.844 2.953-4.25 5.875 2.172 3.063 5.75 5.078 9.797 5.078s7.625-2.016 9.797-5.078zM20 10c0-3.313-2.688-6-6-6s-6 2.688-6 6 2.688 6 6 6 6-2.688 6-6zM28 14c0 7.703-6.25 14-14 14-7.734 0-14-6.281-14-14 0-7.734 6.266-14 14-14s14 6.266 14 14z"></path>
</symbol>
<symbol id="icon-remove_red_eye" viewBox="0 0 24 24">
<path d="M12 9q1.219 0 2.109 0.891t0.891 2.109-0.891 2.109-2.109 0.891-2.109-0.891-0.891-2.109 0.891-2.109 2.109-0.891zM12 17.016q2.063 0 3.539-1.477t1.477-3.539-1.477-3.539-3.539-1.477-3.539 1.477-1.477 3.539 1.477 3.539 3.539 1.477zM12 4.5q3.703 0 6.703 2.063t4.313 5.438q-1.313 3.375-4.313 5.438t-6.703 2.063-6.703-2.063-4.313-5.438q1.313-3.375 4.313-5.438t6.703-2.063z"></path>
</symbol>
<symbol id="icon-mail-envelope-closed" viewBox="0 0 32 32">
<path d="M25.923 21.077l-0.808 0.808-5.99-5.135-2.625 2.25-2.625-2.25-5.99 5.135-0.808-0.808 5.923-5.077-5.923-5.077 0.808-0.808 8.615 7.385 8.615-7.385 0.808 0.808-5.923 5.077 5.923 5.077zM6.004 8c-1.107 0-2.004 0.895-2.004 1.994v12.012c0 1.101 0.89 1.994 2.004 1.994h20.993c1.107 0 2.004-0.895 2.004-1.994v-12.012c0-1.101-0.89-1.994-2.004-1.994h-20.993z"></path>
</symbol>
<symbol id="icon-document-text" viewBox="0 0 32 32">
<path d="M19 3v6.002c0 1.111 0.898 1.998 2.006 1.998h4.994v17.003c0 1.107-0.894 1.997-1.997 1.997h-15.005c-1.107 0-1.997-0.899-1.997-2.007v-22.985c0-1.109 0.899-2.007 2.009-2.007h9.991zM10 10v1h5v-1h-5zM10 7v1h7v-1h-7zM10 13v1h13v-1h-13zM10 16v1h10v-1h-10zM10 19v1h13v-1h-13zM10 22v1h9v-1h-9zM10 25v1h13v-1h-13zM20 3v5.997c0 0.554 0.451 1.003 0.991 1.003h5.009l-6-7z"></path>
</symbol>
<symbol id="icon-folders" viewBox="0 0 32 32">
<path d="M0 15v-6.009c0-1.101 0.897-1.991 2.003-1.991h10.997l2 4h11.994c1.109 0 2.006 0.893 2.006 1.995v2.005h-29zM0 16v11.009c0 1.1 0.9 1.991 1.993 1.991h25.013c1.101 0 1.993-0.893 1.993-1.995v-11.005h-29zM3 6v-1.009c0-1.101 0.897-1.991 2.003-1.991h10.997l2 4h11.994c1.109 0 2.006 0.893 2.006 1.995v14.010c0 1.102-0.892 1.995-1.993 1.995h-0.007v-12c0-1.657-1.342-3-3.003-3h-10.997l-2-4h-11z"></path>
</symbol>
<symbol id="icon-css3" viewBox="0 0 32 32">
<path fill="#1572b6" style="fill: var(--color1, #1572b6)" d="M2 0h28l-2.547 28.751-11.484 3.249-11.42-3.251zM24.787 5.884l-17.573-0.004 0.284 3.496 13.5 0.003-0.34 3.621h-8.853l0.32 3.431h8.243l-0.488 4.697-3.88 1.072-3.941-1.080-0.251-2.813h-3.48l0.387 5.14 7.287 2.271 7.164-2.040z"></path>
</symbol>
<symbol id="icon-git" viewBox="0 0 32 32">
<path fill="#f05032" style="fill: var(--color2, #f05032)" d="M31.395 14.573l-13.972-13.971c-0.805-0.804-2.109-0.804-2.917 0l-2.895 2.9 3.68 3.68c0.86-0.287 1.839-0.093 2.519 0.588 0.688 0.687 0.877 1.677 0.584 2.533l3.544 3.547c0.86-0.297 1.849-0.104 2.533 0.58 0.961 0.96 0.961 2.512 0 3.472-0.959 0.959-2.508 0.959-3.467 0-0.719-0.721-0.899-1.783-0.539-2.661l-3.319-3.301v8.7c0.235 0.115 0.456 0.271 0.651 0.464 0.951 0.961 0.951 2.511 0 3.467-0.959 0.961-2.519 0.961-3.479 0-0.959-0.959-0.959-2.505 0-3.464 0.243-0.24 0.516-0.421 0.807-0.541v-8.785c-0.289-0.121-0.565-0.296-0.8-0.535-0.727-0.727-0.901-1.789-0.528-2.679l-3.616-3.633-9.581 9.575c-0.8 0.807-0.8 2.112 0 2.919l13.973 13.969c0.805 0.805 2.109 0.805 2.915 0l13.907-13.907c0.807-0.804 0.807-2.109 0-2.916z"></path>
</symbol>
<symbol id="icon-github" viewBox="0 0 32 32">
<path d="M16 0.396c-8.84 0-16 7.164-16 16 0 7.071 4.584 13.067 10.94 15.18 0.8 0.151 1.093-0.344 1.093-0.769 0-0.38-0.013-1.387-0.020-2.72-4.451 0.965-5.389-2.147-5.389-2.147-0.728-1.847-1.78-2.34-1.78-2.34-1.449-0.992 0.112-0.972 0.112-0.972 1.607 0.112 2.451 1.648 2.451 1.648 1.427 2.447 3.745 1.74 4.66 1.331 0.144-1.035 0.556-1.74 1.013-2.14-3.553-0.4-7.288-1.776-7.288-7.907 0-1.747 0.62-3.173 1.647-4.293-0.18-0.404-0.72-2.031 0.14-4.235 0 0 1.34-0.429 4.4 1.64 1.28-0.356 2.64-0.532 4-0.54 1.36 0.008 2.72 0.184 4 0.54 3.040-2.069 4.38-1.64 4.38-1.64 0.86 2.204 0.32 3.831 0.16 4.235 1.020 1.12 1.64 2.547 1.64 4.293 0 6.147-3.74 7.5-7.3 7.893 0.56 0.48 1.080 1.461 1.080 2.96 0 2.141-0.020 3.861-0.020 4.381 0 0.42 0.28 0.92 1.1 0.76 6.401-2.099 10.981-8.099 10.981-15.159 0-8.836-7.164-16-16-16z"></path>
</symbol>
<symbol id="icon-html5" viewBox="0 0 32 32">
<path fill="#e34f26" style="fill: var(--color3, #e34f26)" d="M2 0h28l-2.547 28.751-11.484 3.249-11.419-3.251zM11.375 13l-0.309-3.624 13.412 0.004 0.307-3.496-17.568-0.004 0.931 10.68h12.168l-0.435 4.568-3.88 1.072-3.94-1.080-0.251-2.813h-3.479l0.44 5.561 7.229 1.933 7.172-1.924 0.992-10.876z"></path>
</symbol>
<symbol id="icon-java" viewBox="0 0 32 32">
<path fill="#007396" style="fill: var(--color4, #007396)" d="M11.801 24.747c0 0-1.223 0.712 0.871 0.952 2.536 0.291 3.832 0.249 6.625-0.281 0 0 0.736 0.461 1.761 0.861-6.265 2.684-14.177-0.157-9.257-1.532zM11.035 21.244c0 0-1.371 1.015 0.723 1.232 2.709 0.279 4.848 0.303 8.551-0.411 0 0 0.512 0.519 1.316 0.803-7.572 2.215-16.009 0.173-10.589-1.624zM17.488 15.3c1.544 1.777-0.405 3.377-0.405 3.377s3.919-2.024 2.119-4.557c-1.681-2.363-2.971-3.536 4.009-7.584 0-0.001-10.955 2.735-5.723 8.764zM25.773 27.339c0 0 0.905 0.745-0.996 1.321-3.616 1.096-15.051 1.425-18.225 0.044-1.141-0.497 1-1.187 1.672-1.331 0.703-0.152 1.104-0.124 1.104-0.124-1.271-0.895-8.208 1.756-3.524 2.516 12.773 2.071 23.283-0.933 19.969-2.427zM12.389 17.613c0 0-5.816 1.381-2.059 1.883 1.585 0.212 4.748 0.164 7.693-0.083 2.408-0.203 4.824-0.636 4.824-0.636s-0.849 0.363-1.464 0.783c-5.905 1.553-17.315 0.831-14.029-0.757 2.776-1.341 5.035-1.189 5.035-1.189zM22.821 23.445c6.004-3.12 3.228-6.119 1.291-5.713-0.473 0.099-0.687 0.184-0.687 0.184s0.176-0.276 0.513-0.396c3.833-1.348 6.781 3.975-1.237 6.083 0-0.001 0.093-0.083 0.12-0.157zM19.201 0c0 0 3.325 3.325-3.153 8.44-5.195 4.103-1.184 6.443-0.001 9.115-3.032-2.737-5.257-5.144-3.765-7.385 2.192-3.292 8.263-4.887 6.92-10.169zM12.979 31.899c5.763 0.369 14.612-0.204 14.821-2.931 0 0-0.403 1.033-4.763 1.855-4.917 0.925-10.985 0.817-14.583 0.224 0-0.001 0.737 0.609 4.524 0.852z"></path>
</symbol>
<symbol id="icon-javascript" viewBox="0 0 32 32">
<path fill="#f7df1e" style="fill: var(--color5, #f7df1e)" d="M0 0h32v32h-32zM29.379 24.368c-0.233-1.46-1.184-2.687-4.004-3.831-0.981-0.46-2.072-0.78-2.396-1.52-0.121-0.44-0.14-0.68-0.061-0.94 0.2-0.861 1.22-1.12 2.020-0.88 0.52 0.16 1 0.56 1.301 1.2 1.379-0.901 1.379-0.901 2.34-1.5-0.36-0.56-0.539-0.801-0.781-1.040-0.84-0.94-1.959-1.42-3.779-1.379l-0.94 0.119c-0.901 0.22-1.76 0.7-2.28 1.34-1.52 1.721-1.081 4.721 0.759 5.961 1.82 1.36 4.481 1.659 4.821 2.94 0.32 1.56-1.16 2.060-2.621 1.88-1.081-0.24-1.68-0.781-2.34-1.781l-2.44 1.401c0.28 0.64 0.6 0.919 1.080 1.479 2.32 2.341 8.12 2.221 9.161-1.339 0.039-0.12 0.32-0.94 0.099-2.2zM17.401 14.708h-2.997c0 2.584-0.012 5.152-0.012 7.74 0 1.643 0.084 3.151-0.184 3.615-0.44 0.919-1.573 0.801-2.088 0.64-0.528-0.261-0.796-0.621-1.107-1.14-0.084-0.14-0.147-0.261-0.169-0.261l-2.433 1.5c0.407 0.84 1 1.563 1.765 2.023 1.14 0.68 2.672 0.9 4.276 0.54 1.044-0.301 1.944-0.921 2.415-1.881 0.68-1.24 0.536-2.76 0.529-4.461 0.016-2.739 0-5.479 0-8.239z"></path>
</symbol>
<symbol id="icon-jest" viewBox="0 0 32 32">
<path fill="#c21325" style="fill: var(--color6, #c21325)" d="M29.668 15.76c-0.003-1.918-1.306-3.531-3.075-4.007l-0.029-0.007 3.984-11.747h-19.743l3.995 11.784c-1.742 0.519-2.99 2.106-2.992 3.984v0c0 1.391 0.693 2.623 1.751 3.381-0.442 0.619-0.917 1.161-1.44 1.653l-0.006 0.005c-0.956 0.912-2.083 1.653-3.328 2.17l-0.072 0.026c-1.112-0.751-1.593-2.075-1.159-3.261 1.704-0.541 2.917-2.109 2.917-3.96 0-2.284-1.847-4.137-4.129-4.147h-0.001c-2.291 0.003-4.148 1.86-4.151 4.15v0c0 1.131 0.463 2.168 1.204 2.909-0.064 0.129-0.129 0.26-0.195 0.399-0.62 1.279-1.324 2.724-1.593 4.345-0.537 3.243 0.343 5.845 2.465 7.319 1.089 0.776 2.447 1.241 3.914 1.241 0.005 0 0.009 0 0.014 0h-0.001c2.436 0 4.909-1.223 7.3-2.409 1.705-0.843 3.465-1.723 5.197-2.149 0.64-0.157 1.307-0.249 2.011-0.352 1.427-0.204 2.9-0.416 4.224-1.187 1.505-0.874 2.58-2.347 2.904-4.084l0.006-0.037c0.232-1.325 0-2.659-0.592-3.827 0.397-0.64 0.62-1.389 0.62-2.195zM27.861 15.76c0 1.287-1.047 2.333-2.333 2.333-1.288-0.004-2.331-1.049-2.331-2.337 0-0.739 0.343-1.399 0.879-1.827l0.005-0.004 0.009-0.009c0.075-0.056 0.157-0.112 0.24-0.167 0 0 0.011 0 0.011-0.009 0.037-0.019 0.073-0.047 0.111-0.067 0.009 0 0.019-0.008 0.028-0.008 0.037-0.019 0.084-0.037 0.129-0.056 0.047-0.019 0.093-0.036 0.131-0.055 0.009 0 0.017-0.009 0.027-0.009 0.037-0.009 0.075-0.028 0.112-0.037 0.009 0 0.027-0.009 0.037-0.009 0.045-0.009 0.083-0.019 0.129-0.027h0.009l0.139-0.029c0.009 0 0.027 0 0.037-0.009 0.037 0 0.073-0.009 0.111-0.009h0.047c0.047 0 0.093-0.009 0.148-0.009h0.12c0.037 0 0.067 0 0.103 0.009h0.019c0.073 0.009 0.148 0.019 0.223 0.037 1.070 0.235 1.86 1.175 1.861 2.298v0zM13.391 1.853h14.573l-3.345 9.867c-0.139 0.027-0.277 0.073-0.416 0.12l-3.52-7.18-3.531 7.133c-0.139-0.045-0.288-0.073-0.436-0.101zM20.015 14.953c-0.181-0.887-0.626-1.649-1.248-2.221l-0.003-0.003 1.917-3.872 1.936 3.956c-0.573 0.573-0.991 1.307-1.157 2.14zM15.373 13.489c0.045-0.009 0.083-0.019 0.129-0.027h0.027c0.039-0.011 0.075-0.011 0.112-0.020h0.037c0.037 0 0.065-0.009 0.101-0.009h0.361c0.037 0 0.065 0.009 0.093 0.009 0.019 0 0.027 0 0.047 0.009 0.036 0.009 0.064 0.009 0.101 0.019 0.009 0 0.019 0 0.037 0.009l0.129 0.027h0.009c0.037 0.011 0.075 0.020 0.111 0.039 0.009 0 0.019 0.009 0.037 0.009 0.028 0.009 0.065 0.019 0.093 0.036 0.009 0 0.019 0.009 0.027 0.009 0.037 0.019 0.075 0.028 0.112 0.047h0.009c0.046 0.018 0.085 0.040 0.121 0.066l-0.001-0.001h0.009c0.037 0.019 0.075 0.045 0.112 0.064 0.009 0 0.009 0.009 0.017 0.009 0.037 0.019 0.067 0.047 0.103 0.065l0.009 0.009c0.111 0.083 0.213 0.176 0.315 0.268l0.009 0.009c0.396 0.417 0.64 0.982 0.64 1.604 0 0.003 0 0.006-0 0.009v-0c-0.044 1.256-1.072 2.257-2.335 2.257s-2.291-1.001-2.335-2.253l-0-0.004c0-0.002 0-0.004 0-0.007 0-1.083 0.741-1.993 1.744-2.25l0.016-0.004zM6.256 13.424c1.288 0 2.335 1.048 2.335 2.335s-1.047 2.335-2.333 2.335-2.336-1.047-2.336-2.333 1.048-2.336 2.335-2.336zM27.807 21.457c-0.224 1.227-0.968 2.245-1.991 2.833l-0.020 0.011c-1.011 0.584-2.252 0.769-3.559 0.955-0.871 0.112-1.613 0.248-2.343 0.419l0.156-0.031c-1.927 0.473-3.779 1.4-5.576 2.289-2.299 1.139-4.467 2.213-6.476 2.213-0.009 0-0.020 0-0.030 0-1.067 0-2.054-0.344-2.856-0.927l0.014 0.010c-2.039-1.408-1.937-4.048-1.696-5.493 0.223-1.353 0.843-2.621 1.436-3.836 0.037-0.073 0.065-0.139 0.103-0.213 0.203 0.075 0.416 0.131 0.639 0.168-0.352 1.964 0.648 3.992 2.595 4.993l0.352 0.185 0.379-0.139c1.621-0.575 3.123-1.511 4.448-2.761 0.721-0.674 1.357-1.424 1.898-2.242l0.029-0.046c0.213 0.036 0.427 0.045 0.64 0.045 1.917-0.005 3.529-1.306 4.004-3.074l0.007-0.029h1.556c0.479 1.799 2.093 3.103 4.012 3.103 0 0 0.001 0 0.001 0h-0c0.768 0 1.48-0.213 2.093-0.573 0.24 0.693 0.315 1.417 0.185 2.14z"></path>
</symbol>
<symbol id="icon-linkedin" viewBox="0 0 32 32">
<path fill="#0077b5" style="fill: var(--color7, #0077b5)" d="M27.263 27.269h-4.739v-7.425c0-1.771-0.036-4.049-2.469-4.049-2.471 0-2.848 1.927-2.848 3.919v7.556h-4.739v-15.269h4.552v2.081h0.061c0.636-1.2 2.183-2.467 4.493-2.467 4.801 0 5.689 3.16 5.689 7.273zM7.116 9.911c-1.525 0-2.751-1.235-2.751-2.753 0-1.517 1.227-2.751 2.751-2.751 1.52 0 2.752 1.233 2.752 2.751 0 1.519-1.233 2.753-2.752 2.753zM9.492 27.269h-4.752v-15.269h4.752zM29.633 0h-27.272c-1.305 0-2.361 1.032-2.361 2.305v27.389c0 1.275 1.056 2.305 2.361 2.305h27.268c1.304 0 2.371-1.031 2.371-2.305v-27.389c0-1.273-1.067-2.305-2.371-2.305z"></path>
</symbol>
<symbol id="icon-linux" viewBox="0 0 32 32">
<path fill="#fcc624" style="fill: var(--color8, #fcc624)" d="M16.671 0c-0.207 0-0.42 0.011-0.639 0.028-5.636 0.444-4.141 6.409-4.227 8.397-0.103 1.457-0.4 2.605-1.401 4.028-1.18 1.401-2.836 3.667-3.621 6.028-0.371 1.109-0.547 2.245-0.383 3.319-0.052 0.045-0.101 0.091-0.148 0.18-0.347 0.357-0.599 0.801-0.883 1.119-0.265 0.265-0.647 0.356-1.063 0.533-0.417 0.181-0.877 0.359-1.152 0.908-0.12 0.251-0.181 0.524-0.176 0.801 0 0.265 0.036 0.535 0.073 0.715 0.077 0.532 0.155 0.972 0.052 1.293-0.331 0.907-0.372 1.528-0.14 1.98 0.232 0.445 0.713 0.625 1.252 0.801 1.081 0.267 2.547 0.18 3.7 0.799 1.235 0.623 2.488 0.895 3.488 0.627 0.701-0.153 1.293-0.617 1.611-1.26 0.783-0.004 1.64-0.359 3.013-0.445 0.932-0.077 2.099 0.356 3.437 0.265 0.033 0.18 0.084 0.265 0.152 0.445l0.004 0.004c0.521 1.037 1.484 1.509 2.512 1.428 1.028-0.080 2.123-0.715 3.009-1.741 0.841-1.020 2.244-1.445 3.171-2.004 0.464-0.265 0.839-0.625 0.865-1.137 0.031-0.533-0.265-1.083-0.952-1.836v-0.129l-0.004-0.004c-0.227-0.267-0.333-0.713-0.451-1.235-0.113-0.535-0.243-1.048-0.656-1.395h-0.004c-0.079-0.072-0.164-0.089-0.251-0.18-0.075-0.051-0.161-0.083-0.253-0.085 0.575-1.704 0.352-3.4-0.231-4.925-0.711-1.88-1.953-3.517-2.9-4.644-1.061-1.34-2.101-2.609-2.081-4.492 0.036-2.869 0.316-8.177-4.725-8.185zM17.376 4.54h0.017c0.284 0 0.528 0.083 0.779 0.264 0.255 0.18 0.44 0.443 0.585 0.711 0.14 0.345 0.211 0.612 0.221 0.965 0-0.027 0.008-0.053 0.008-0.079v0.139c-0.003-0.009-0.005-0.020-0.005-0.028l-0.005-0.032c-0.003 0.324-0.071 0.644-0.2 0.941-0.063 0.167-0.159 0.32-0.284 0.447-0.039-0.021-0.076-0.040-0.117-0.056-0.14-0.060-0.265-0.085-0.38-0.177-0.095-0.037-0.193-0.068-0.292-0.088 0.065-0.079 0.193-0.177 0.243-0.264 0.071-0.171 0.109-0.352 0.117-0.536v-0.025c0.003-0.18-0.024-0.361-0.081-0.533-0.060-0.18-0.135-0.268-0.244-0.445-0.112-0.088-0.223-0.176-0.356-0.176h-0.021c-0.124 0-0.235 0.040-0.349 0.176-0.127 0.125-0.221 0.276-0.273 0.445-0.071 0.169-0.112 0.352-0.12 0.533v0.025c0.003 0.119 0.011 0.239 0.027 0.356-0.257-0.089-0.584-0.18-0.809-0.269-0.013-0.087-0.021-0.176-0.024-0.265v-0.027c-0.011-0.352 0.057-0.701 0.2-1.025 0.109-0.292 0.309-0.541 0.573-0.711 0.228-0.172 0.505-0.265 0.792-0.265zM13.427 4.619h0.048c0.189 0 0.36 0.064 0.532 0.18 0.195 0.172 0.352 0.384 0.459 0.62 0.12 0.265 0.188 0.535 0.204 0.889v0.005c0.009 0.179 0.008 0.268-0.003 0.355v0.107c-0.040 0.009-0.075 0.024-0.111 0.032-0.203 0.073-0.365 0.18-0.524 0.267 0.016-0.119 0.017-0.239 0.004-0.356v-0.020c-0.016-0.177-0.052-0.265-0.109-0.444-0.041-0.136-0.117-0.257-0.221-0.356-0.065-0.060-0.153-0.091-0.244-0.085h-0.028c-0.095 0.008-0.173 0.055-0.248 0.176-0.085 0.103-0.14 0.228-0.16 0.36-0.036 0.144-0.047 0.292-0.031 0.441v0.019c0.016 0.18 0.049 0.268 0.108 0.445 0.060 0.179 0.129 0.267 0.22 0.357 0.015 0.012 0.028 0.024 0.045 0.032-0.093 0.076-0.156 0.093-0.235 0.181-0.049 0.037-0.107 0.080-0.175 0.091-0.139-0.167-0.261-0.347-0.367-0.536-0.128-0.28-0.195-0.584-0.207-0.889-0.023-0.301 0.015-0.603 0.107-0.891 0.073-0.263 0.203-0.505 0.377-0.713 0.171-0.177 0.347-0.267 0.557-0.267zM15.255 6.893c0.441 0 0.976 0.087 1.62 0.532 0.391 0.267 0.697 0.359 1.404 0.624h0.004c0.34 0.181 0.54 0.355 0.637 0.532v-0.175c0.097 0.196 0.104 0.424 0.021 0.627-0.164 0.415-0.688 0.859-1.419 1.124v0.003c-0.357 0.18-0.668 0.444-1.033 0.62-0.368 0.18-0.784 0.389-1.349 0.356-0.203 0.011-0.407-0.020-0.597-0.089-0.147-0.080-0.291-0.168-0.429-0.264-0.26-0.18-0.484-0.443-0.816-0.62v-0.007h-0.007c-0.533-0.328-0.821-0.683-0.915-0.948-0.092-0.357-0.007-0.625 0.257-0.8 0.299-0.18 0.507-0.361 0.644-0.448 0.139-0.099 0.191-0.136 0.235-0.175h0.003v-0.004c0.225-0.269 0.581-0.625 1.119-0.801 0.185-0.048 0.392-0.087 0.621-0.087zM18.987 9.751c0.479 1.889 1.596 4.633 2.315 5.964 0.381 0.712 1.14 2.212 1.469 4.032 0.208-0.007 0.439 0.024 0.684 0.085 0.861-2.228-0.728-4.623-1.452-5.288-0.295-0.268-0.309-0.447-0.164-0.447 0.785 0.712 1.82 2.096 2.195 3.676 0.172 0.713 0.212 1.472 0.028 2.227 0.089 0.037 0.18 0.081 0.273 0.089 1.376 0.712 1.884 1.251 1.64 2.049v-0.057c-0.081-0.004-0.16 0-0.241 0h-0.020c0.201-0.623-0.243-1.1-1.42-1.632-1.22-0.533-2.195-0.448-2.361 0.62-0.009 0.057-0.016 0.088-0.023 0.18-0.091 0.031-0.185 0.071-0.279 0.085-0.573 0.357-0.883 0.892-1.057 1.583-0.173 0.711-0.227 1.541-0.273 2.492v0.004c-0.028 0.445-0.228 1.117-0.425 1.801-2 1.429-4.773 2.051-7.132 0.445-0.148-0.257-0.328-0.499-0.536-0.711-0.099-0.167-0.224-0.316-0.367-0.445 0.243 0 0.451-0.039 0.62-0.089 0.193-0.089 0.343-0.251 0.419-0.445 0.144-0.356 0-0.929-0.46-1.551-0.46-0.623-1.241-1.327-2.384-2.028-0.84-0.532-1.315-1.16-1.533-1.861-0.22-0.712-0.191-1.447-0.020-2.193 0.327-1.427 1.164-2.813 1.699-3.684 0.143-0.087 0.049 0.18-0.544 1.299-0.528 1.001-1.521 3.329-0.163 5.139 0.051-1.319 0.344-2.62 0.863-3.835 0.752-1.704 2.324-4.672 2.448-7.024 0.064 0.048 0.289 0.18 0.385 0.269 0.291 0.177 0.507 0.444 0.787 0.62 0.281 0.268 0.636 0.447 1.168 0.447 0.052 0.004 0.1 0.008 0.148 0.008 0.548 0 0.972-0.179 1.328-0.357 0.387-0.179 0.695-0.445 0.987-0.533h0.007c0.623-0.18 1.115-0.536 1.393-0.933zM21.901 21.695c0.049 0.801 0.457 1.66 1.176 1.836 0.784 0.179 1.912-0.444 2.388-1.020l0.281-0.012c0.42-0.011 0.769 0.013 1.129 0.356l0.004 0.004c0.277 0.265 0.407 0.708 0.521 1.168 0.113 0.535 0.205 1.040 0.545 1.421 0.648 0.703 0.86 1.208 0.848 1.52l0.004-0.008v0.024l-0.004-0.016c-0.020 0.349-0.247 0.528-0.664 0.793-0.84 0.535-2.328 0.949-3.276 2.093-0.824 0.983-1.828 1.519-2.715 1.588-0.885 0.071-1.649-0.267-2.099-1.197l-0.007-0.004c-0.28-0.535-0.16-1.367 0.075-2.253 0.235-0.891 0.571-1.793 0.617-2.531 0.049-0.952 0.101-1.78 0.26-2.419 0.16-0.62 0.411-1.063 0.855-1.312zM7.481 21.76h0.013c0.071 0 0.14 0.007 0.209 0.019 0.501 0.073 0.941 0.444 1.364 1.003l1.213 2.219 0.004 0.004c0.324 0.711 1.005 1.419 1.585 2.184 0.579 0.797 1.027 1.508 0.972 2.093v0.008c-0.076 0.992-0.639 1.531-1.5 1.725-0.86 0.18-2.027 0.003-3.193-0.619-1.291-0.715-2.824-0.625-3.809-0.803-0.492-0.088-0.815-0.268-0.964-0.535-0.148-0.265-0.151-0.801 0.164-1.64v-0.004l0.003-0.004c0.156-0.445 0.040-1.004-0.036-1.492-0.073-0.535-0.111-0.945 0.057-1.253 0.213-0.445 0.528-0.532 0.919-0.711 0.393-0.18 0.855-0.269 1.221-0.625h0.003v-0.004c0.341-0.357 0.593-0.801 0.891-1.117 0.253-0.268 0.507-0.448 0.884-0.448zM17.027 9.661c-0.58 0.268-1.26 0.713-1.984 0.713-0.723 0-1.293-0.356-1.705-0.621-0.207-0.179-0.373-0.357-0.499-0.447-0.219-0.179-0.192-0.445-0.099-0.445 0.145 0.021 0.172 0.18 0.265 0.268 0.128 0.088 0.287 0.265 0.481 0.444 0.388 0.267 0.907 0.623 1.555 0.623 0.647 0 1.404-0.356 1.864-0.621 0.26-0.18 0.593-0.445 0.864-0.623 0.208-0.183 0.199-0.357 0.372-0.357 0.172 0.021 0.045 0.179-0.196 0.444-0.241 0.18-0.615 0.447-0.92 0.624zM15.584 7.549v-0.029c-0.008-0.025 0.017-0.056 0.039-0.067 0.099-0.057 0.24-0.036 0.347 0.005 0.084 0 0.213 0.089 0.2 0.18-0.008 0.065-0.113 0.088-0.18 0.088-0.073 0-0.123-0.057-0.188-0.091-0.069-0.024-0.195-0.011-0.217-0.087zM14.849 7.549c-0.027 0.077-0.151 0.065-0.221 0.088-0.063 0.033-0.115 0.091-0.185 0.091-0.068 0-0.175-0.025-0.183-0.091-0.012-0.088 0.117-0.177 0.2-0.177 0.108-0.041 0.245-0.063 0.345-0.007 0.025 0.012 0.048 0.040 0.040 0.067v0.028z"></path>
</symbol>
<symbol id="icon-mongodb" viewBox="0 0 32 32">
<path fill="#47a248" style="fill: var(--color9, #47a248)" d="M22.907 12.691c-1.684-7.413-5.656-9.849-6.083-10.781-0.469-0.657-0.977-1.909-0.977-1.909-0.003 0.025-0.005 0.041-0.007 0.065v0.017h-0.001c-0.003 0.020-0.004 0.033-0.005 0.052v0.020h-0.003c0 0.013-0.003 0.024-0.003 0.035v0.035h-0.004c-0.001 0.011-0.001 0.024-0.004 0.033v0.028h-0.003c0 0.009 0 0.020-0.003 0.028v0.027h-0.003c0 0.013-0.001 0.029-0.003 0.043v0.003c-0.004 0.023-0.008 0.045-0.012 0.067v0.011h-0.003c-0.001 0.005-0.004 0.011-0.004 0.016v0.023h-0.004v0.029h-0.007v0.024h-0.007v0.028h-0.005v0.025h-0.005v0.023h-0.008v0.019h-0.005v0.024h-0.005v0.019h-0.007v0.017h-0.004v0.020h-0.005c-0.001 0.001-0.001 0.004-0.001 0.005v0.013h-0.004c-0.001 0.003-0.001 0.005-0.001 0.008v0.008h-0.003c-0.001 0.004-0.003 0.011-0.003 0.013-0.004 0.009-0.009 0.019-0.013 0.028v0.003c-0.003 0.003-0.005 0.007-0.007 0.009v0.011h-0.005v0.011h-0.007v0.011h-0.004v0.013h-0.008v0.019h-0.005v0.005h-0.005v0.011h-0.005v0.015h-0.005v0.011h-0.008v0.015h-0.005v0.011h-0.007v0.011h-0.004v0.013h-0.007v0.011h-0.005v0.008h-0.005v0.011h-0.008v0.012h-0.005v0.008h-0.007v0.011h-0.005v0.015h-0.007v0.005h-0.004v0.011h-0.008v0.005h-0.005v0.013h-0.005v0.005h-0.005v0.011h-0.007v0.008h-0.004l-0.003 0.005v0.005h-0.003c-0.001 0.003-0.003 0.003-0.003 0.005v0.001h-0.001c-0.001 0.004-0.003 0.007-0.005 0.009v0.004h-0.001c-0.007 0.008-0.011 0.016-0.016 0.024v0.001c-0.003 0.003-0.009 0.008-0.012 0.013v0.003h-0.001c-0.001 0.001-0.004 0.003-0.004 0.004v0.004h-0.003l-0.004 0.004v0.001h-0.001c0 0.001-0.003 0.003-0.004 0.005v0.005h-0.004l-0.003 0.003v0.003h-0.003c0 0.003-0.003 0.003-0.003 0.004v0.004h-0.005c0 0.001-0.001 0.003-0.003 0.004v0.008h-0.004v0.005h-0.005v0.008h-0.005v0.011h-0.007v-0.011h-0.007v0.005h-0.005v0.008h-0.007v0.011h-0.007v0.005h-0.005v0.008h-0.005v0.005h-0.005v0.011h-0.008v0.005h-0.005v0.008h-0.007v0.005h-0.005v0.007h-0.007v0.013h-0.003v0.005h-0.008v0.007h-0.005v0.003h-0.005v0.005h-0.007v0.013h-0.005v0.005h-0.007v0.005h-0.005v0.008h-0.007v0.005h-0.007v0.005h-0.005v0.005h-0.005v0.013h-0.005v0.007h-0.008v0.005h-0.005v0.005h-0.007v0.008h-0.005v0.005h-0.007v0.009h-0.005v0.005h-0.008v0.008h-0.003v0.005h-0.005v0.005h-0.007v0.005h-0.005v0.008h-0.007v0.005h-0.004c-0.001 0.001-0.001 0.003-0.001 0.003v0.003h-0.003l-0.005 0.005c0 0-0.003 0.003-0.005 0.004v0.008h-0.005v0.007h-0.005v0.005h-0.005v0.005h-0.004l-0.004 0.004v0.004h-0.003l-0.003 0.003v0.004h-0.003c-0.007 0.008-0.009 0.013-0.019 0.021-0.003 0.003-0.011 0.009-0.016 0.013-0.016 0.011-0.036 0.028-0.052 0.043-0.011 0.007-0.021 0.016-0.029 0.023v0.001h-0.001c-0.021 0.017-0.041 0.033-0.065 0.052v0.001c-0.032 0.027-0.063 0.052-0.099 0.083v-0.001h-0.003c-0.076 0.063-0.156 0.133-0.248 0.212v0.001h-0.001c-0.225 0.197-0.493 0.451-0.793 0.757l-0.025 0.025c-1.813 1.876-4.671 5.785-4.972 12.103-0.027 0.523-0.021 1.031 0.008 1.525v0.012c0.145 2.489 0.927 4.615 1.904 6.341v0.001c0.389 0.688 0.809 1.313 1.235 1.873v0.001c1.469 1.94 2.969 3.089 3.352 3.368 0.588 1.364 0.533 3.705 0.533 3.705l0.859 0.287c0 0-0.175-2.268 0.071-3.363 0.076-0.343 0.256-0.635 0.465-0.883 0.141-0.1 0.56-0.401 1.063-0.86 0.024-0.025 0.037-0.048 0.059-0.072 2.028-1.891 5.816-6.547 4.517-14.132z"></path>
</symbol>
<symbol id="icon-node-dot-js" viewBox="0 0 32 32">
<path fill="#393" style="fill: var(--color10, #393)" d="M15.997 32c-0.428 0-0.855-0.112-1.229-0.329l-3.915-2.316c-0.584-0.327-0.299-0.443-0.107-0.511 0.78-0.271 0.937-0.333 1.771-0.805 0.087-0.049 0.201-0.031 0.291 0.023l3.008 1.785c0.109 0.060 0.263 0.060 0.363 0l11.727-6.768c0.109-0.063 0.179-0.188 0.179-0.317v-13.533c0-0.132-0.071-0.256-0.183-0.323l-11.721-6.763c-0.108-0.063-0.252-0.063-0.361 0l-11.719 6.764c-0.113 0.065-0.185 0.193-0.185 0.321v13.533c0 0.129 0.072 0.252 0.185 0.313l3.212 1.856c1.743 0.872 2.811-0.155 2.811-1.187v-13.361c0-0.189 0.152-0.337 0.341-0.337h1.487c0.185 0 0.34 0.149 0.34 0.337v13.361c0 2.327-1.267 3.66-3.472 3.66-0.677 0-1.212 0-2.701-0.735l-3.077-1.769c-0.76-0.439-1.229-1.26-1.229-2.139v-13.533c0-0.879 0.471-1.7 1.229-2.137l11.727-6.776c0.743-0.42 1.728-0.42 2.464 0l11.725 6.776c0.76 0.439 1.232 1.259 1.232 2.137v13.533c0 0.879-0.472 1.697-1.232 2.139l-11.725 6.771c-0.373 0.217-0.799 0.329-1.233 0.329zM25.465 18.657c0-2.533-1.712-3.208-5.316-3.684-3.641-0.481-4.012-0.731-4.012-1.583 0-0.704 0.313-1.644 3.011-1.644 2.409 0 3.297 0.519 3.663 2.143 0.032 0.153 0.172 0.265 0.329 0.265h1.521c0.095 0 0.184-0.041 0.248-0.108 0.064-0.072 0.099-0.164 0.089-0.261-0.236-2.797-2.095-4.101-5.851-4.101-3.344 0-5.339 1.411-5.339 3.777 0 2.567 1.984 3.276 5.193 3.593 3.84 0.376 4.137 0.937 4.137 1.692 0 1.311-1.052 1.869-3.523 1.869-3.103 0-3.785-0.779-4.015-2.323-0.027-0.165-0.168-0.287-0.337-0.287h-1.516c-0.188 0-0.339 0.149-0.339 0.337 0 1.976 1.075 4.331 6.207 4.331 3.717 0.001 5.848-1.461 5.848-4.017z"></path>
</symbol>
<symbol id="icon-postgresql" viewBox="0 0 32 32">
<path fill="#336791" style="fill: var(--color11, #336791)" d="M22.837 0c-1.312 0.010-2.575 0.206-3.769 0.562l0.096-0.024-0.084 0.027c-0.677-0.126-1.464-0.205-2.267-0.22l-0.013-0c-1.571-0.027-2.92 0.355-4.008 0.989-1.072-0.372-3.296-1.013-5.64-0.885-1.632 0.089-3.413 0.585-4.733 1.979-1.316 1.393-2.012 3.549-1.865 6.483 0.040 0.809 0.271 2.129 0.653 3.839s0.92 3.711 1.591 5.536c0.671 1.827 1.405 3.467 2.553 4.581 0.573 0.559 1.363 1.028 2.293 0.989 0.653-0.027 1.244-0.313 1.753-0.736 0.248 0.327 0.513 0.469 0.755 0.601 0.304 0.167 0.6 0.28 0.907 0.355 0.551 0.137 1.493 0.321 2.597 0.133 0.376-0.063 0.772-0.185 1.167-0.36 0.015 0.44 0.032 0.871 0.049 1.307 0.055 1.381 0.089 2.657 0.504 3.776 0.067 0.183 0.249 1.124 0.969 1.955 0.72 0.832 2.131 1.351 3.737 1.007 1.133-0.243 2.575-0.68 3.532-2.043 0.947-1.347 1.373-3.279 1.457-6.412 0.021-0.169 0.047-0.313 0.073-0.448l0.225 0.020h0.027c1.209 0.055 2.521-0.117 3.617-0.627 0.971-0.449 1.705-0.904 2.24-1.711 0.133-0.2 0.28-0.441 0.32-0.857s-0.199-1.067-0.595-1.367c-0.793-0.603-1.292-0.373-1.827-0.263-0.476 0.11-1.027 0.18-1.592 0.194l-0.010 0c1.541-2.596 2.647-5.353 3.277-7.793 0.373-1.44 0.583-2.768 0.6-3.929s-0.077-2.189-0.773-3.079c-2.175-2.779-5.232-3.547-7.597-3.573-0.073-0.001-0.147-0.003-0.22-0.005zM22.775 0.853c2.237-0.021 5.096 0.607 7.148 3.229 0.461 0.589 0.599 1.451 0.583 2.512-0.017 1.060-0.213 2.329-0.572 3.72-0.696 2.693-2.011 5.833-3.863 8.651 0.061 0.044 0.13 0.082 0.204 0.112l0.007 0.002c0.387 0.16 1.268 0.297 3.027-0.064 0.443-0.093 0.767-0.156 1.103 0.1 0.15 0.128 0.245 0.317 0.245 0.529 0 0.013-0 0.026-0.001 0.040l0-0.002c-0.019 0.17-0.081 0.323-0.175 0.451l0.002-0.003c-0.34 0.511-1.011 0.995-1.871 1.393-0.761 0.355-1.853 0.54-2.821 0.551-0.485 0.005-0.933-0.032-1.313-0.151l-0.024-0.009c-0.147 1.413-0.484 4.204-0.704 5.477-0.176 1.027-0.484 1.843-1.072 2.453-0.587 0.611-1.417 0.979-2.535 1.219-1.384 0.297-2.393-0.023-3.044-0.571-0.649-0.547-0.947-1.272-1.125-1.716-0.123-0.307-0.187-0.704-0.248-1.235s-0.107-1.18-0.137-1.912c-0.029-0.745-0.045-1.619-0.045-2.497 0-0.305 0.002-0.609 0.006-0.913l-0 0.046c-0.558 0.512-1.263 0.872-2.045 1.010l-0.024 0.004c-0.919 0.156-1.739 0.003-2.228-0.12-0.264-0.067-0.494-0.159-0.709-0.276l0.016 0.008c-0.227-0.121-0.443-0.259-0.587-0.529-0.057-0.103-0.091-0.227-0.091-0.358 0-0.053 0.006-0.105 0.016-0.155l-0.001 0.005c0.047-0.18 0.15-0.332 0.289-0.44l0.002-0.001c0.264-0.215 0.613-0.335 1.14-0.444 0.959-0.197 1.293-0.332 1.497-0.493 0.173-0.139 0.369-0.419 0.716-0.829-0.001-0.013-0.003-0.032-0.004-0.051l-0-0.004c-0.653-0.019-1.261-0.193-1.794-0.488l0.020 0.010c-0.2 0.211-1.221 1.291-2.467 2.789-0.524 0.627-1.103 0.987-1.713 1.012-0.611 0.027-1.163-0.281-1.632-0.736-0.937-0.911-1.685-2.477-2.337-4.248-0.651-1.771-1.18-3.743-1.556-5.423-0.377-1.68-0.6-3.035-0.632-3.688-0.14-2.776 0.509-4.647 1.623-5.827 1.115-1.18 2.643-1.627 4.132-1.712 2.673-0.153 5.212 0.779 5.725 0.979 0.989-0.672 2.264-1.091 3.856-1.064 0.801 0.012 1.572 0.117 2.31 0.305l-0.068-0.015 0.027-0.012c0.257-0.095 0.587-0.194 0.923-0.273l0.062-0.012c0.825-0.202 1.776-0.324 2.754-0.337l0.009-0zM22.977 1.747h-0.195c-0.811 0.012-1.594 0.104-2.349 0.27l0.077-0.014c1.661 0.736 2.916 1.869 3.8 3 0.585 0.739 1.091 1.583 1.481 2.487l0.028 0.073c0.147 0.352 0.245 0.649 0.301 0.88 0.028 0.116 0.047 0.213 0.053 0.315 0.003 0.051 0.005 0.103-0.016 0.192 0 0.004-0.007 0.013-0.008 0.017 0.040 1.168-0.249 1.96-0.284 3.075-0.027 0.808 0.18 1.757 0.231 2.793 0.048 0.973-0.069 2.043-0.701 3.092 0.053 0.064 0.101 0.128 0.152 0.192 1.672-2.633 2.877-5.547 3.52-8.031 0.344-1.337 0.527-2.549 0.543-3.509 0.013-0.96-0.165-1.656-0.393-1.947-1.789-2.288-4.211-2.871-6.24-2.885zM16.591 2.088c-1.576 0.004-2.707 0.48-3.564 1.193-0.884 0.737-1.477 1.747-1.867 2.78-0.463 1.227-0.621 2.413-0.684 3.219l0.017-0.011c0.476-0.267 1.101-0.533 1.771-0.688 0.669-0.153 1.391-0.201 2.044 0.052s1.193 0.849 1.389 1.753c0.939 4.343-0.292 5.957-0.745 7.176-0.144 0.351-0.295 0.801-0.42 1.261l-0.021 0.090c0.057-0.013 0.115-0.029 0.172-0.035 0.32-0.027 0.571 0.080 0.72 0.144 0.456 0.189 0.769 0.587 0.939 1.040 0.044 0.119 0.076 0.247 0.095 0.379 0.017 0.046 0.027 0.098 0.027 0.153 0 0.006-0 0.011-0 0.017l0-0.001c-0.022 0.666-0.034 1.45-0.034 2.236 0 0.966 0.019 1.928 0.056 2.885l-0.004-0.138c0.031 0.717 0.076 1.349 0.133 1.848 0.057 0.497 0.139 0.876 0.191 1.004 0.171 0.427 0.42 0.985 0.871 1.365 0.451 0.379 1.097 0.632 2.279 0.379 1.024-0.22 1.656-0.525 2.079-0.964 0.421-0.439 0.673-1.049 0.835-1.984 0.241-1.4 0.727-5.46 0.785-6.224-0.027-0.576 0.059-1.019 0.243-1.356 0.189-0.347 0.483-0.559 0.736-0.673 0.127-0.057 0.245-0.096 0.343-0.124-0.119-0.17-0.225-0.311-0.336-0.448l0.012 0.015c-0.35-0.422-0.648-0.905-0.873-1.427l-0.015-0.039c-0.136-0.279-0.25-0.49-0.371-0.697l0.028 0.052c-0.177-0.32-0.401-0.72-0.636-1.169-0.469-0.9-0.98-1.991-1.245-3.053-0.264-1.061-0.303-2.16 0.375-2.935 0.6-0.688 1.653-0.973 3.235-0.813-0.047-0.14-0.075-0.256-0.153-0.443-0.386-0.898-0.851-1.672-1.405-2.374l0.017 0.022c-1.34-1.713-3.509-3.412-6.861-3.467zM7.735 2.157c-0.169 0-0.339 0.005-0.507 0.015-1.347 0.077-2.62 0.468-3.531 1.433-0.912 0.965-1.512 2.548-1.381 5.168 0.025 0.496 0.241 1.885 0.612 3.536 0.369 1.651 0.893 3.593 1.523 5.309 0.631 1.716 1.395 3.209 2.12 3.916 0.365 0.353 0.683 0.496 0.971 0.484 0.289-0.013 0.637-0.18 1.063-0.691 0.836-1.006 1.625-1.895 2.44-2.759l-0.026 0.028c-0.986-0.86-1.606-2.118-1.606-3.521 0-0.24 0.018-0.475 0.053-0.705l-0.003 0.026c0.137-0.985 0.156-1.907 0.14-2.635-0.016-0.709-0.067-1.181-0.067-1.476-0-0.004-0-0.008-0-0.013s0-0.009 0-0.013v0.001-0.007l-0.001-0.008v-0.001c0-0.002 0-0.004 0-0.007 0-1.613 0.289-3.158 0.819-4.586l-0.030 0.091c0.373-0.992 0.929-2 1.763-2.816-0.819-0.269-2.272-0.68-3.845-0.757-0.15-0.008-0.327-0.013-0.505-0.013h-0.001zM24.265 9.2c-0.905 0.012-1.413 0.245-1.68 0.551-0.377 0.433-0.413 1.193-0.179 2.129 0.233 0.937 0.716 1.985 1.169 2.856 0.227 0.436 0.447 0.828 0.624 1.147 0.179 0.32 0.309 0.547 0.389 0.74 0.073 0.179 0.155 0.336 0.237 0.483 0.351-0.74 0.413-1.467 0.377-2.224-0.047-0.937-0.264-1.896-0.232-2.867 0.036-1.135 0.26-1.873 0.28-2.751-0.296-0.040-0.639-0.064-0.986-0.064h-0zM13.287 9.353c-0.293 0.003-0.576 0.039-0.847 0.104l0.026-0.005c-0.583 0.144-1.095 0.349-1.569 0.615l0.031-0.016c-0.177 0.096-0.33 0.197-0.472 0.309l0.007-0.005-0.029 0.027c0.008 0.195 0.047 0.667 0.063 1.361 0.016 0.76-0.003 1.729-0.149 2.779-0.319 2.28 1.336 4.168 3.28 4.171 0.113-0.468 0.3-0.943 0.487-1.443 0.541-1.459 1.607-2.523 0.709-6.675-0.147-0.68-0.437-0.955-0.837-1.109-0.195-0.071-0.42-0.112-0.655-0.112-0.015 0-0.030 0-0.046 0.001l0.002-0zM23.843 9.625h0.067c0.088 0.003 0.169 0.012 0.24 0.029 0.072 0.016 0.133 0.040 0.184 0.073s0.088 0.084 0.1 0.145l0 0.001-0.001 0.011c0 0.004 0 0.009 0 0.013 0 0.062-0.017 0.119-0.048 0.168l0.001-0.001c-0.041 0.076-0.090 0.142-0.147 0.2l0-0c-0.132 0.145-0.309 0.246-0.509 0.282l-0.005 0.001c-0.028 0.004-0.061 0.006-0.094 0.006-0.169 0-0.326-0.054-0.455-0.145l0.002 0.002c-0.066-0.045-0.123-0.097-0.172-0.156l-0.001-0.001c-0.042-0.046-0.071-0.103-0.084-0.167l-0-0.002c-0.001-0.006-0.001-0.013-0.001-0.020 0-0.058 0.022-0.11 0.057-0.15l-0 0c0.043-0.049 0.095-0.089 0.153-0.119l0.003-0.001c0.128-0.072 0.301-0.125 0.497-0.155 0.073-0.011 0.145-0.016 0.213-0.013zM13.416 9.849c0.071 0 0.145 0.007 0.221 0.017 0.204 0.028 0.385 0.083 0.524 0.163 0.069 0.037 0.128 0.084 0.177 0.141l0.001 0.001c0.046 0.052 0.074 0.121 0.074 0.196 0 0.011-0.001 0.022-0.002 0.032l0-0.001c-0.014 0.080-0.049 0.15-0.1 0.206l0-0c-0.055 0.067-0.117 0.124-0.188 0.171l-0.003 0.002c-0.137 0.098-0.308 0.157-0.493 0.157-0.037 0-0.073-0.002-0.108-0.007l0.004 0c-0.223-0.038-0.417-0.147-0.559-0.303l-0.001-0.001c-0.061-0.063-0.113-0.135-0.155-0.214l-0.002-0.005c-0.036-0.056-0.057-0.124-0.057-0.198 0-0.014 0.001-0.027 0.002-0.040l-0 0.002c0.020-0.144 0.139-0.219 0.255-0.26 0.109-0.038 0.235-0.060 0.366-0.060 0.016 0 0.031 0 0.047 0.001l-0.002-0zM25.496 19.64l-0.004 0.001c-0.196 0.071-0.357 0.1-0.493 0.16-0.139 0.055-0.25 0.155-0.317 0.282l-0.002 0.003c-0.084 0.153-0.156 0.425-0.135 0.888 0.057 0.039 0.122 0.071 0.193 0.092l0.005 0.001c0.228 0.069 0.611 0.115 1.037 0.108 0.851-0.009 1.897-0.208 2.453-0.467 0.481-0.226 0.895-0.5 1.263-0.825l-0.006 0.005h-0.001c-1.857 0.384-2.907 0.281-3.551 0.016-0.169-0.071-0.315-0.16-0.446-0.268l0.003 0.002zM14.788 19.765h-0.028c-0.071 0.007-0.173 0.031-0.372 0.251-0.464 0.52-0.627 0.847-1.009 1.152-0.383 0.304-0.88 0.467-1.873 0.671-0.315 0.064-0.495 0.135-0.615 0.192 0.039 0.032 0.035 0.040 0.093 0.071 0.145 0.080 0.332 0.151 0.483 0.189 0.427 0.107 1.128 0.231 1.86 0.107 0.732-0.125 1.493-0.476 2.143-1.387 0.112-0.157 0.124-0.389 0.032-0.639-0.093-0.249-0.297-0.464-0.441-0.524-0.079-0.040-0.171-0.069-0.268-0.082l-0.005-0z"></path>
</symbol>
<symbol id="icon-postman" viewBox="0 0 32 32">
<path fill="#ff6c37" style="fill: var(--color12, #ff6c37)" d="M18.036 0.132c-8.763-1.124-16.78 5.068-17.904 13.832-1.124 8.763 5.067 16.779 13.831 17.904 8.764 1.124 16.783-5.068 17.904-13.832 1.125-8.763-5.065-16.779-13.831-17.904zM21.331 10.112c-0.309 0.004-0.588 0.131-0.791 0.333v0l-5.937 5.937-1.267-1.267c5.852-5.835 6.907-5.891 7.995-5.004zM14.847 16.593l5.92-5.92c0.151-0.158 0.363-0.256 0.598-0.256 0.457 0 0.827 0.37 0.827 0.827 0 0.254-0.114 0.481-0.294 0.633l-0.001 0.001-6.265 5.5zM15.287 17.519l-1.467 0.317c-0.005 0.001-0.011 0.002-0.018 0.002-0.031 0-0.058-0.018-0.072-0.044l-0-0c-0.007-0.012-0.011-0.025-0.011-0.040 0-0.022 0.009-0.043 0.024-0.057v0l0.86-0.86zM11.549 16.907l1.563-1.563 1.172 1.171-2.639 0.568c-0.007 0.002-0.016 0.003-0.025 0.003-0.039 0-0.072-0.022-0.088-0.055l-0-0.001c-0.010-0.015-0.015-0.033-0.015-0.052 0-0.029 0.013-0.054 0.032-0.072l0-0zM6.688 24.984c-0.052-0.005-0.092-0.048-0.092-0.101 0-0.003 0-0.007 0-0.010l-0 0c0.003-0.024 0.013-0.045 0.029-0.061v0h0.003l1.261-1.261 1.629 1.629zM9.921 23.309c-0.098 0.052-0.164 0.153-0.164 0.27 0 0.025 0.003 0.050 0.009 0.073l-0-0.002 0.271 1.153c0.003 0.012 0.005 0.026 0.005 0.040 0 0.092-0.075 0.167-0.167 0.167-0.047 0-0.089-0.019-0.119-0.050l-0-0h-0.004l-1.637-1.639 5.016-5.011 2.427-0.524 1.165 1.165c-1.673 1.469-3.961 2.935-6.8 4.357zM16.96 18.739h-0.003l-1.119-1.119 6.265-5.5c0.058-0.052 0.11-0.107 0.157-0.167l0.002-0.003c-0.197 1.793-2.705 4.327-5.303 6.788zM21.836 10.125l-0.004-0.003c-0.437-0.439-0.707-1.045-0.707-1.714 0-1.342 1.088-2.429 2.429-2.429 0.594 0 1.138 0.213 1.561 0.567l-0.004-0.003-2.147 2.151c-0.029 0.029-0.047 0.069-0.047 0.113s0.018 0.084 0.047 0.113v0l1.663 1.663c-0.314 0.159-0.685 0.253-1.077 0.253-0.669 0-1.275-0.271-1.713-0.71v0zM25.273 10.125c-0.107 0.106-0.226 0.202-0.353 0.285l-0.009 0.005h-0.001l-1.609-1.609 2.044-2.044c0.881 0.96 0.849 2.443-0.072 3.363zM25.14 8.067c-0.048 0.035-0.079 0.091-0.079 0.154 0 0.020 0.003 0.039 0.008 0.056l-0-0.001c0.036 0.072 0.057 0.156 0.057 0.246 0 0.135-0.048 0.259-0.129 0.355l0.001-0.001c-0.025 0.032-0.040 0.072-0.040 0.116 0 0.059 0.028 0.112 0.071 0.146l0 0c0.031 0.024 0.069 0.039 0.112 0.040h0c0.057-0.001 0.107-0.026 0.141-0.066l0-0c0.133-0.159 0.213-0.365 0.213-0.589 0-0.15-0.036-0.292-0.1-0.417l0.002 0.005c-0.034-0.048-0.089-0.079-0.151-0.079-0.040 0-0.078 0.013-0.108 0.035l0.001-0z"></path>
</symbol>
<symbol id="icon-python" viewBox="0 0 32 32">
<path fill="#3776ab" style="fill: var(--color13, #3776ab)" d="M19.080 0.24l1.2 0.267 0.973 0.347 0.787 0.4 0.6 0.427 0.453 0.453 0.333 0.453 0.213 0.44 0.133 0.4 0.053 0.347 0.027 0.267-0.013 0.173v7.12l-0.067 0.84-0.173 0.733-0.28 0.613-0.347 0.507-0.4 0.413-0.44 0.333-0.467 0.253-0.467 0.187-0.44 0.133-0.4 0.093-0.347 0.053-0.28 0.027h-7.96l-0.92 0.067-0.787 0.187-0.667 0.293-0.547 0.36-0.44 0.427-0.36 0.467-0.267 0.48-0.2 0.493-0.133 0.467-0.093 0.427-0.053 0.36-0.027 0.28v4.080h-2.973l-0.28-0.040-0.373-0.093-0.427-0.16-0.467-0.24-0.48-0.347-0.48-0.48-0.467-0.613-0.427-0.787-0.373-0.973-0.28-1.173-0.187-1.4-0.067-1.64 0.080-1.627 0.213-1.387 0.32-1.16 0.427-0.947 0.48-0.76 0.533-0.587 0.56-0.44 0.56-0.32 0.533-0.213 0.48-0.133 0.427-0.067 0.32-0.013h0.213l0.080 0.013h10.88v-1.107h-7.787l-0.013-3.667-0.027-0.493 0.067-0.453 0.147-0.413 0.227-0.373 0.333-0.347 0.413-0.307 0.507-0.267 0.587-0.24 0.68-0.2 0.773-0.16 0.853-0.133 0.947-0.080 1.027-0.053 1.12-0.027 1.693 0.067zM10.68 2.88l-0.307 0.44-0.107 0.547 0.107 0.547 0.307 0.453 0.44 0.293 0.547 0.12 0.547-0.12 0.44-0.293 0.307-0.453 0.107-0.547-0.107-0.547-0.307-0.44-0.44-0.293-0.547-0.12-0.547 0.12zM28.133 8.147l0.373 0.080 0.427 0.16 0.467 0.24 0.48 0.36 0.48 0.467 0.467 0.627 0.427 0.787 0.373 0.973 0.28 1.173 0.187 1.387 0.067 1.64-0.080 1.64-0.213 1.387-0.32 1.147-0.427 0.947-0.48 0.76-0.533 0.6-0.56 0.44-0.56 0.32-0.533 0.213-0.48 0.12-0.427 0.067-0.32 0.027-0.213-0.013h-10.96v1.093h7.787l0.013 3.68 0.027 0.48-0.067 0.453-0.147 0.413-0.227 0.387-0.333 0.333-0.413 0.32-0.507 0.267-0.587 0.227-0.68 0.2-0.773 0.173-0.853 0.12-0.947 0.093-1.027 0.053-1.12 0.013-1.693-0.053-1.427-0.187-1.2-0.267-0.973-0.333-0.787-0.4-0.6-0.44-0.453-0.453-0.333-0.453-0.213-0.44-0.133-0.4-0.053-0.333-0.027-0.267 0.013-0.173v-7.12l0.067-0.853 0.173-0.72 0.28-0.613 0.347-0.507 0.4-0.427 0.44-0.32 0.467-0.267 0.467-0.187 0.44-0.133 0.4-0.080 0.347-0.053 0.28-0.027 0.173-0.013h7.787l0.92-0.067 0.787-0.187 0.667-0.28 0.547-0.373 0.44-0.427 0.36-0.467 0.267-0.48 0.2-0.48 0.133-0.467 0.093-0.427 0.053-0.373 0.027-0.28v-4.080h2.787l0.187 0.013zM19.507 27.147l-0.307 0.44-0.107 0.547 0.107 0.547 0.307 0.44 0.44 0.307 0.547 0.107 0.547-0.107 0.44-0.307 0.307-0.44 0.107-0.547-0.107-0.547-0.307-0.44-0.44-0.307-0.547-0.107-0.547 0.107z"></path>
</symbol>
<symbol id="icon-react" viewBox="0 0 32 32">
<path fill="#61dafb" style="fill: var(--color14, #61dafb)" d="M16 13.148c-1.575 0-2.852 1.277-2.852 2.852s1.277 2.852 2.852 2.852v0c1.575 0 2.852-1.277 2.852-2.852s-1.277-2.852-2.852-2.852v0zM8.011 21.673l-0.629-0.16c-4.691-1.185-7.381-3.197-7.381-5.519s2.691-4.333 7.381-5.519l0.629-0.159 0.177 0.624c0.545 1.86 1.163 3.443 1.899 4.957l-0.082-0.186 0.135 0.284-0.135 0.284c-0.656 1.329-1.275 2.912-1.761 4.551l-0.056 0.22zM7.089 11.933c-3.565 1.001-5.753 2.533-5.753 4.061 0 1.527 2.188 3.059 5.753 4.061 0.512-1.62 1.046-2.965 1.662-4.263l-0.086 0.202c-0.531-1.098-1.066-2.443-1.511-3.828l-0.065-0.234zM23.989 21.673l-0.177-0.625c-0.544-1.859-1.162-3.441-1.9-4.954l0.081 0.184-0.135-0.284 0.135-0.284c0.656-1.329 1.275-2.911 1.762-4.55l0.056-0.221 0.177-0.624 0.631 0.159c4.689 1.185 7.38 3.197 7.38 5.52s-2.691 4.333-7.38 5.519zM23.335 15.995c0.64 1.385 1.169 2.747 1.576 4.061 3.567-1.003 5.753-2.535 5.753-4.061 0-1.528-2.188-3.059-5.753-4.061-0.511 1.619-1.045 2.963-1.662 4.262l0.086-0.2zM7.080 11.927l-0.177-0.623c-1.319-4.648-0.919-7.979 1.097-9.141 1.977-1.141 5.152 0.207 8.479 3.621l0.453 0.465-0.453 0.465c-1.146 1.19-2.207 2.482-3.162 3.853l-0.068 0.103-0.18 0.257-0.313 0.027c-1.875 0.151-3.596 0.439-5.264 0.86l0.218-0.047zM9.608 3.087c-0.357 0-0.673 0.077-0.94 0.231-1.325 0.764-1.56 3.42-0.647 7.004 1.21-0.285 2.681-0.521 4.18-0.658l0.131-0.010c0.894-1.264 1.792-2.37 2.756-3.414l-0.020 0.022c-2.080-2.025-4.049-3.175-5.46-3.175zM22.393 30.236c-0.001 0-0.001 0 0 0-1.9 0-4.34-1.431-6.872-4.031l-0.453-0.465 0.453-0.465c1.146-1.19 2.206-2.482 3.16-3.854l0.068-0.103 0.18-0.257 0.312-0.027c1.875-0.15 3.597-0.438 5.267-0.858l-0.218 0.046 0.629-0.159 0.179 0.624c1.316 4.645 0.917 7.977-1.099 9.139-0.449 0.259-0.988 0.411-1.562 0.411-0.016 0-0.031-0-0.047-0l0.002 0zM16.932 25.728c2.080 2.025 4.049 3.175 5.46 3.175h0.001c0.356 0 0.673-0.077 0.939-0.231 1.325-0.764 1.561-3.421 0.647-7.005-1.212 0.286-2.682 0.522-4.182 0.658l-0.13 0.010c-0.893 1.265-1.791 2.371-2.755 3.416l0.020-0.022zM24.92 11.927l-0.629-0.159c-1.453-0.376-3.175-0.664-4.939-0.806l-0.111-0.007-0.312-0.027-0.18-0.257c-1.021-1.474-2.082-2.766-3.237-3.966l0.009 0.010-0.453-0.465 0.453-0.465c3.325-3.413 6.499-4.761 8.479-3.621 2.016 1.163 2.416 4.493 1.099 9.14zM19.667 9.653c1.523 0.139 2.969 0.364 4.312 0.668 0.915-3.584 0.679-6.24-0.647-7.004-1.317-0.761-3.793 0.405-6.4 2.944 0.943 1.022 1.841 2.128 2.666 3.289l0.069 0.103zM9.608 30.236c-0.014 0-0.030 0-0.046 0-0.574 0-1.113-0.152-1.577-0.419l0.015 0.008c-2.016-1.161-2.416-4.492-1.097-9.139l0.176-0.624 0.629 0.159c1.54 0.388 3.239 0.661 5.047 0.812l0.313 0.027 0.179 0.257c1.022 1.475 2.083 2.767 3.239 3.967l-0.010-0.010 0.453 0.465-0.453 0.465c-2.531 2.6-4.971 4.031-6.868 4.031zM8.021 21.667c-0.915 3.584-0.679 6.241 0.647 7.005 1.316 0.751 3.791-0.407 6.4-2.944-0.943-1.022-1.841-2.129-2.667-3.29l-0.069-0.103c-1.629-0.146-3.099-0.382-4.534-0.711l0.224 0.043zM16 22.504c-1.097 0-2.225-0.048-3.355-0.141l-0.313-0.027-0.18-0.257c-0.544-0.768-1.139-1.691-1.697-2.639l-0.103-0.19c-0.452-0.758-0.971-1.732-1.45-2.728l-0.105-0.243-0.133-0.284 0.133-0.284c0.584-1.239 1.102-2.212 1.658-3.161l-0.103 0.191c0.552-0.955 1.159-1.907 1.8-2.829l0.18-0.257 0.313-0.027c1.005-0.090 2.174-0.142 3.355-0.142s2.35 0.052 3.505 0.153l-0.15-0.011 0.312 0.027 0.179 0.257c1.177 1.666 2.294 3.567 3.252 5.56l0.104 0.24 0.135 0.284-0.135 0.284c-1.058 2.232-2.176 4.133-3.439 5.925l0.083-0.125-0.179 0.257-0.312 0.027c-1.129 0.093-2.259 0.141-3.356 0.141zM13.071 21.059c1.973 0.148 3.885 0.148 5.86 0 1.004-1.445 1.978-3.104 2.827-4.836l0.101-0.228c-0.947-1.958-1.922-3.617-3.012-5.19l0.083 0.126c-0.877-0.071-1.898-0.111-2.929-0.111s-2.052 0.040-3.063 0.119l0.134-0.008c-1.008 1.447-1.983 3.106-2.83 4.84l-0.099 0.224c0.951 1.96 1.926 3.619 3.014 5.193l-0.085-0.13z"></path>
</symbol>
<symbol id="icon-redux" viewBox="0 0 32 32">
<path fill="#764abc" style="fill: var(--color15, #764abc)" d="M22.177 22.005c1.159-0.1 2.057-1.12 1.999-2.339-0.061-1.219-1.060-2.197-2.277-2.197h-0.081c-1.257 0.041-2.237 1.099-2.197 2.359 0.040 0.639 0.301 1.159 0.659 1.537-1.397 2.717-3.495 4.715-6.672 6.393-2.137 1.117-4.395 1.539-6.592 1.239-1.837-0.259-3.275-1.080-4.155-2.397-1.317-1.999-1.437-4.155-0.34-6.312 0.801-1.559 1.999-2.697 2.799-3.257-0.2-0.519-0.44-1.397-0.56-2.056-5.915 4.236-5.313 10.028-3.516 12.765 1.339 1.997 4.076 3.275 7.072 3.275 0.799 0 1.639-0.059 2.457-0.259 5.195-0.999 9.129-4.115 11.387-8.709zM29.308 17.011c-3.095-3.636-7.651-5.633-12.845-5.633h-0.68c-0.337-0.739-1.116-1.199-1.996-1.199h-0.060c-1.257 0-2.237 1.080-2.196 2.337 0.040 1.197 1.059 2.197 2.277 2.197h0.099c0.9-0.040 1.679-0.6 1.997-1.399h0.74c3.079 0 5.993 0.899 8.651 2.656 2.036 1.339 3.496 3.096 4.315 5.195 0.717 1.717 0.679 3.396-0.060 4.796-1.139 2.196-3.057 3.356-5.593 3.356-1.599 0-3.156-0.5-3.956-0.859-0.479 0.397-1.279 1.057-1.859 1.457 1.757 0.797 3.536 1.257 5.253 1.257 3.896 0 6.791-2.196 7.891-4.315 1.197-2.397 1.099-6.432-1.959-9.888zM8.653 22.723c0.039 1.199 1.057 2.197 2.277 2.197h0.080c1.279-0.040 2.257-1.097 2.197-2.357 0-1.199-1.039-2.196-2.257-2.196h-0.081c-0.080 0-0.199 0-0.3 0.039-1.657-2.797-2.357-5.795-2.096-9.028 0.159-2.437 0.959-4.556 2.396-6.313 1.199-1.499 3.456-2.239 4.995-2.277 4.315-0.081 6.113 5.295 6.252 7.432l1.997 0.599c-0.46-6.552-4.533-9.989-8.429-9.989-3.656 0-7.031 2.657-8.391 6.553-1.857 5.195-0.639 10.188 1.639 14.184-0.199 0.26-0.319 0.719-0.279 1.157z"></path>
</symbol>
<symbol id="icon-sass" viewBox="0 0 32 32">
<path fill="#c69" style="fill: var(--color16, #c69)" d="M16 0c8.836 0 16 7.164 16 16s-7.164 16-16 16-16-7.164-16-16 7.164-16 16-16zM12.82 21.331c0.233 0.86 0.208 1.664-0.032 2.389l-0.087 0.24c-0.032 0.081-0.069 0.16-0.104 0.235-0.187 0.387-0.435 0.747-0.74 1.080-0.931 1.012-2.229 1.396-2.787 1.073-0.6-0.349-0.301-1.78 0.779-2.92 1.161-1.224 2.827-2.012 2.827-2.012v-0.004zM26.035 6.849c-0.723-2.844-5.436-3.779-9.896-2.193-2.652 0.943-5.525 2.424-7.591 4.356-2.457 2.295-2.848 4.295-2.687 5.131 0.569 2.948 4.609 4.876 6.271 6.307v0.008c-0.489 0.24-4.075 2.039-4.915 3.9-0.9 1.96 0.14 3.361 0.82 3.54 2.1 0.581 4.26-0.48 5.42-2.199 1.12-1.681 1.021-3.841 0.539-4.901 0.661-0.18 1.44-0.26 2.44-0.139 2.801 0.32 3.361 2.080 3.24 2.8-0.12 0.719-0.697 1.139-0.899 1.259-0.2 0.121-0.26 0.16-0.241 0.241 0.020 0.12 0.121 0.12 0.28 0.1 0.22-0.040 1.461-0.6 1.521-1.961 0.060-1.72-1.581-3.639-4.5-3.6-1.2 0.021-1.961 0.121-2.5 0.341-0.040-0.060-0.081-0.1-0.14-0.14-1.8-1.94-5.14-3.3-5-5.88 0.040-0.94 0.38-3.419 6.4-6.419 4.94-2.461 8.881-1.78 9.561-0.28 0.977 2.139-2.101 6.12-7.241 6.699-1.96 0.22-2.98-0.539-3.241-0.82-0.279-0.3-0.319-0.32-0.419-0.259-0.16 0.080-0.060 0.34 0 0.5 0.16 0.4 0.78 1.1 1.861 1.46 0.939 0.3 3.24 0.479 6-0.6 3.099-1.199 5.519-4.54 4.819-7.34z"></path>
</symbol>
<symbol id="icon-arrow-long-up" viewBox="0 0 20 20">
<path d="M10 0.75l5.5 5.25h-3.5v13h-4v-13h-3.5l5.5-5.25z"></path>
</symbol>
<symbol id="icon-home" viewBox="0 0 20 20">
<path d="M18.672 11h-1.672v6c0 0.445-0.194 1-1 1h-4v-6h-4v6h-4c-0.806 0-1-0.555-1-1v-6h-1.672c-0.598 0-0.47-0.324-0.060-0.748l8.024-8.032c0.195-0.202 0.451-0.302 0.708-0.312 0.257 0.010 0.513 0.109 0.708 0.312l8.023 8.031c0.411 0.425 0.539 0.749-0.059 0.749z"></path>
</symbol>
<symbol id="icon-github" viewBox="0 0 32 32">
<path d="M16 0.396c-8.84 0-16 7.164-16 16 0 7.071 4.584 13.067 10.94 15.18 0.8 0.151 1.093-0.344 1.093-0.769 0-0.38-0.013-1.387-0.020-2.72-4.451 0.965-5.389-2.147-5.389-2.147-0.728-1.847-1.78-2.34-1.78-2.34-1.449-0.992 0.112-0.972 0.112-0.972 1.607 0.112 2.451 1.648 2.451 1.648 1.427 2.447 3.745 1.74 4.66 1.331 0.144-1.035 0.556-1.74 1.013-2.14-3.553-0.4-7.288-1.776-7.288-7.907 0-1.747 0.62-3.173 1.647-4.293-0.18-0.404-0.72-2.031 0.14-4.235 0 0 1.34-0.429 4.4 1.64 1.28-0.356 2.64-0.532 4-0.54 1.36 0.008 2.72 0.184 4 0.54 3.040-2.069 4.38-1.64 4.38-1.64 0.86 2.204 0.32 3.831 0.16 4.235 1.020 1.12 1.64 2.547 1.64 4.293 0 6.147-3.74 7.5-7.3 7.893 0.56 0.48 1.080 1.461 1.080 2.96 0 2.141-0.020 3.861-0.020 4.381 0 0.42 0.28 0.92 1.1 0.76 6.401-2.099 10.981-8.099 10.981-15.159 0-8.836-7.164-16-16-16z"></path>
</symbol>
<symbol id="icon-envelope1" viewBox="0 0 28 28">
<path d="M28 11.094v12.406c0 1.375-1.125 2.5-2.5 2.5h-23c-1.375 0-2.5-1.125-2.5-2.5v-12.406c0.469 0.516 1 0.969 1.578 1.359 2.594 1.766 5.219 3.531 7.766 5.391 1.313 0.969 2.938 2.156 4.641 2.156h0.031c1.703 0 3.328-1.188 4.641-2.156 2.547-1.844 5.172-3.625 7.781-5.391 0.562-0.391 1.094-0.844 1.563-1.359zM28 6.5c0 1.75-1.297 3.328-2.672 4.281-2.438 1.687-4.891 3.375-7.313 5.078-1.016 0.703-2.734 2.141-4 2.141h-0.031c-1.266 0-2.984-1.437-4-2.141-2.422-1.703-4.875-3.391-7.297-5.078-1.109-0.75-2.688-2.516-2.688-3.938 0-1.531 0.828-2.844 2.5-2.844h23c1.359 0 2.5 1.125 2.5 2.5z"></path>
</symbol>
<symbol id="icon-github-square" viewBox="0 0 24 28">
<path d="M8.109 18.75v0c0.031-0.047 0.016-0.141-0.047-0.203-0.078-0.063-0.172-0.078-0.219-0.031-0.031 0.047-0.016 0.141 0.047 0.203 0.078 0.063 0.172 0.078 0.219 0.031zM7.672 18.109c-0.047-0.063-0.125-0.094-0.187-0.063-0.047 0.031-0.047 0.125 0 0.187 0.063 0.078 0.141 0.109 0.187 0.078v0c0.047-0.031 0.047-0.125 0-0.203zM7.031 17.484v0c0.016-0.031-0.016-0.094-0.078-0.125-0.047-0.016-0.109-0.016-0.125 0.031-0.031 0.047 0 0.094 0.063 0.125 0.063 0.016 0.125 0.016 0.141-0.031zM7.359 17.844v0c0.031-0.031 0.031-0.109-0.031-0.156-0.047-0.063-0.125-0.078-0.156-0.047-0.047 0.047-0.031 0.109 0.016 0.172 0.047 0.047 0.125 0.078 0.172 0.031zM8.703 19.016v0c0.016-0.063-0.047-0.141-0.141-0.172s-0.172 0-0.203 0.063c-0.016 0.063 0.047 0.141 0.141 0.172s0.172 0 0.203-0.063zM9.359 19.063v0c0-0.063-0.078-0.125-0.187-0.125-0.094 0-0.156 0.063-0.156 0.125s0.078 0.125 0.172 0.125 0.172-0.063 0.172-0.125zM9.969 18.953v0c-0.016-0.063-0.109-0.094-0.203-0.078s-0.156 0.078-0.141 0.141 0.094 0.109 0.187 0.094 0.156-0.094 0.156-0.156zM20 14c0-4.422-3.578-8-8-8s-8 3.578-8 8c0 3.531 2.297 6.531 5.469 7.594 0.406 0.078 0.547-0.172 0.547-0.391 0-0.187 0-0.812-0.016-1.484 0 0-2.219 0.484-2.688-0.953 0 0-0.359-0.922-0.891-1.156 0 0-0.719-0.5 0.063-0.5 0 0 0.781 0.063 1.219 0.828 0.703 1.234 1.875 0.875 2.328 0.672 0.078-0.516 0.281-0.875 0.516-1.078-1.781-0.203-3.656-0.891-3.656-3.953 0-0.875 0.313-1.578 0.828-2.141-0.078-0.203-0.359-1.016 0.078-2.125 0.672-0.203 2.203 0.828 2.203 0.828 0.641-0.187 1.313-0.266 2-0.266s1.359 0.078 2 0.266c0 0 1.531-1.031 2.203-0.828 0.438 1.109 0.156 1.922 0.078 2.125 0.516 0.562 0.828 1.266 0.828 2.141 0 3.078-1.875 3.75-3.656 3.953 0.281 0.25 0.547 0.734 0.547 1.484 0 1.062-0.016 1.922-0.016 2.188 0 0.219 0.141 0.469 0.547 0.391 3.172-1.062 5.469-4.062 5.469-7.594zM24 6.5v15c0 2.484-2.016 4.5-4.5 4.5h-15c-2.484 0-4.5-2.016-4.5-4.5v-15c0-2.484 2.016-4.5 4.5-4.5h15c2.484 0 4.5 2.016 4.5 4.5z"></path>
</symbol>
<symbol id="icon-linkedin-square" viewBox="0 0 24 28">
<path d="M3.703 22.094h3.609v-10.844h-3.609v10.844zM7.547 7.906c-0.016-1.062-0.781-1.875-2.016-1.875s-2.047 0.812-2.047 1.875c0 1.031 0.781 1.875 2 1.875h0.016c1.266 0 2.047-0.844 2.047-1.875zM16.688 22.094h3.609v-6.219c0-3.328-1.781-4.875-4.156-4.875-1.937 0-2.797 1.078-3.266 1.828h0.031v-1.578h-3.609s0.047 1.016 0 10.844v0h3.609v-6.062c0-0.313 0.016-0.641 0.109-0.875 0.266-0.641 0.859-1.313 1.859-1.313 1.297 0 1.813 0.984 1.813 2.453v5.797zM24 6.5v15c0 2.484-2.016 4.5-4.5 4.5h-15c-2.484 0-4.5-2.016-4.5-4.5v-15c0-2.484 2.016-4.5 4.5-4.5h15c2.484 0 4.5 2.016 4.5 4.5z"></path>
</symbol>
<symbol id="icon-chevron-circle-down" viewBox="0 0 24 28">
<path d="M12.703 20.297l7.094-7.094c0.391-0.391 0.391-1.016 0-1.406l-1.594-1.594c-0.391-0.391-1.016-0.391-1.406 0l-4.797 4.797-4.797-4.797c-0.391-0.391-1.016-0.391-1.406 0l-1.594 1.594c-0.391 0.391-0.391 1.016 0 1.406l7.094 7.094c0.391 0.391 1.016 0.391 1.406 0zM24 14c0 6.625-5.375 12-12 12s-12-5.375-12-12 5.375-12 12-12 12 5.375 12 12z"></path>
</symbol>
<symbol id="icon-circle-down" viewBox="0 0 32 32">
<path d="M32 16c0-8.837-7.163-16-16-16s-16 7.163-16 16 7.163 16 16 16 16-7.163 16-16zM3 16c0-7.18 5.82-13 13-13s13 5.82 13 13-5.82 13-13 13-13-5.82-13-13z"></path>
<path d="M9.914 11.086l-2.829 2.829 8.914 8.914 8.914-8.914-2.828-2.828-6.086 6.086z"></path>
</symbol>
<symbol id="icon-envelope" viewBox="0 0 20 20">
<path d="M18 2c1.105 0 2 0.895 2 2v0 12c0 1.105-0.895 2-2 2v0h-16c-1.105 0-2-0.895-2-2v0-12c0-1.1 0.9-2 2-2h16zM13.63 11.1l6.37 4.9v-2l-5.12-3.9 5.12-4.1v-2l-10 8-10-8v2l5.12 4.1-5.12 3.9v2l6.37-4.9 3.63 2.9 3.63-2.9z"></path>
</symbol>
<symbol id="icon-envelope" viewBox="0 0 20 20">
<path d="M18 2c1.105 0 2 0.895 2 2v0 12c0 1.105-0.895 2-2 2v0h-16c-1.105 0-2-0.895-2-2v0-12c0-1.1 0.9-2 2-2h16zM13.63 11.1l6.37 4.9v-2l-5.12-3.9 5.12-4.1v-2l-10 8-10-8v2l5.12 4.1-5.12 3.9v2l6.37-4.9 3.63 2.9 3.63-2.9z"></path>
</symbol>
<symbol id="icon-envelope-w" viewBox="0 0 28 28">
<path d="M26 23.5v-12c-0.328 0.375-0.688 0.719-1.078 1.031-2.234 1.719-4.484 3.469-6.656 5.281-1.172 0.984-2.625 2.188-4.25 2.188h-0.031c-1.625 0-3.078-1.203-4.25-2.188-2.172-1.813-4.422-3.563-6.656-5.281-0.391-0.313-0.75-0.656-1.078-1.031v12c0 0.266 0.234 0.5 0.5 0.5h23c0.266 0 0.5-0.234 0.5-0.5zM26 7.078c0-0.391 0.094-1.078-0.5-1.078h-23c-0.266 0-0.5 0.234-0.5 0.5 0 1.781 0.891 3.328 2.297 4.438 2.094 1.641 4.188 3.297 6.266 4.953 0.828 0.672 2.328 2.109 3.422 2.109h0.031c1.094 0 2.594-1.437 3.422-2.109 2.078-1.656 4.172-3.313 6.266-4.953 1.016-0.797 2.297-2.531 2.297-3.859zM28 6.5v17c0 1.375-1.125 2.5-2.5 2.5h-23c-1.375 0-2.5-1.125-2.5-2.5v-17c0-1.375 1.125-2.5 2.5-2.5h23c1.375 0 2.5 1.125 2.5 2.5z"></path>
</symbol>
<symbol id="icon-envelope-b" viewBox="0 0 28 28">
<path d="M28 11.094v12.406c0 1.375-1.125 2.5-2.5 2.5h-23c-1.375 0-2.5-1.125-2.5-2.5v-12.406c0.469 0.516 1 0.969 1.578 1.359 2.594 1.766 5.219 3.531 7.766 5.391 1.313 0.969 2.938 2.156 4.641 2.156h0.031c1.703 0 3.328-1.188 4.641-2.156 2.547-1.844 5.172-3.625 7.781-5.391 0.562-0.391 1.094-0.844 1.563-1.359zM28 6.5c0 1.75-1.297 3.328-2.672 4.281-2.438 1.687-4.891 3.375-7.313 5.078-1.016 0.703-2.734 2.141-4 2.141h-0.031c-1.266 0-2.984-1.437-4-2.141-2.422-1.703-4.875-3.391-7.297-5.078-1.109-0.75-2.688-2.516-2.688-3.938 0-1.531 0.828-2.844 2.5-2.844h23c1.359 0 2.5 1.125 2.5 2.5z"></path>
</symbol>
<symbol id="icon-linkedin2" viewBox="0 0 32 32">
<path d="M12 12h5.535v2.837h0.079c0.77-1.381 2.655-2.837 5.464-2.837 5.842 0 6.922 3.637 6.922 8.367v9.633h-5.769v-8.54c0-2.037-0.042-4.657-3.001-4.657-3.005 0-3.463 2.218-3.463 4.509v8.688h-5.767v-18z"></path>
<path d="M2 12h6v18h-6v-18z"></path>
<path d="M8 7c0 1.657-1.343 3-3 3s-3-1.343-3-3c0-1.657 1.343-3 3-3s3 1.343 3 3z"></path>
</symbol>
</defs>
</svg>
