<!-- Generated by IcoMoon.io -->
<svg version="1.1" xmlns="http://www.w3.org/2000/svg" width="24" height="28" viewBox="0 0 24 28">
<title>chevron-circle-down</title>
<path d="M12.703 20.297l7.094-7.094c0.391-0.391 0.391-1.016 0-1.406l-1.594-1.594c-0.391-0.391-1.016-0.391-1.406 0l-4.797 4.797-4.797-4.797c-0.391-0.391-1.016-0.391-1.406 0l-1.594 1.594c-0.391 0.391-0.391 1.016 0 1.406l7.094 7.094c0.391 0.391 1.016 0.391 1.406 0zM24 14c0 6.625-5.375 12-12 12s-12-5.375-12-12 5.375-12 12-12 12 5.375 12 12z"></path>
</svg>
