<!-- Generated by IcoMoon.io -->
<svg version="1.1" xmlns="http://www.w3.org/2000/svg" width="32" height="32" viewBox="0 0 32 32">
<title>document-text</title>
<path d="M19 3v6.002c0 1.111 0.898 1.998 2.006 1.998h4.994v17.003c0 1.107-0.894 1.997-1.997 1.997h-15.005c-1.107 0-1.997-0.899-1.997-2.007v-22.985c0-1.109 0.899-2.007 2.009-2.007h9.991zM10 10v1h5v-1h-5zM10 7v1h7v-1h-7zM10 13v1h13v-1h-13zM10 16v1h10v-1h-10zM10 19v1h13v-1h-13zM10 22v1h9v-1h-9zM10 25v1h13v-1h-13zM20 3v5.997c0 0.554 0.451 1.003 0.991 1.003h5.009l-6-7z"></path>
</svg>
