<!-- Generated by IcoMoon.io -->
<svg version="1.1" xmlns="http://www.w3.org/2000/svg" width="32" height="32" viewBox="0 0 32 32">
<title>folders</title>
<path d="M0 15v-6.009c0-1.101 0.897-1.991 2.003-1.991h10.997l2 4h11.994c1.109 0 2.006 0.893 2.006 1.995v2.005h-29zM0 16v11.009c0 1.1 0.9 1.991 1.993 1.991h25.013c1.101 0 1.993-0.893 1.993-1.995v-11.005h-29zM3 6v-1.009c0-1.101 0.897-1.991 2.003-1.991h10.997l2 4h11.994c1.109 0 2.006 0.893 2.006 1.995v14.010c0 1.102-0.892 1.995-1.993 1.995h-0.007v-12c0-1.657-1.342-3-3.003-3h-10.997l-2-4h-11z"></path>
</svg>
